# xmcd
#
# Track frame offsets:
#	150
#	12771
#	76534
#	117757
#	156380
#	178759
#	225160
#	268808
#
# Disc length: 4195 seconds
#
# Revision: 1
# Processed by: cddbd v1.5.2PL0 Copyright (c) Steve Scherf et al.
# Submitted via: audiograbber 1.83.01
#
DISCID=52106108
DTITLE=Grateful Dead - 77-04-22 The Spectrum, Philadelphia PA
DYEAR=1900
DGENRE=
TTITLE0=Promised Land
TTITLE1=Mississippi Half-Step
TTITLE2=Looks Like Rain
TTITLE3=Deal
TTITLE4=El Paso
TTITLE5=Tennessee Jed
TTITLE6=Estimated Prophet
TTITLE7=Peggy-O
EXTD=
EXTT0=
EXTT1=
EXTT2=
EXTT3=
EXTT4=
EXTT5=
EXTT6=
EXTT7=
PLAYORDER=
